<svg width="62" height="26" viewBox="0 0 62 26" fill="none" xmlns="http://www.w3.org/2000/svg">
<path fill-rule="evenodd" clip-rule="evenodd" d="M13.2402 20.0977L24.8486 0H26.708L38.3506 20.0977L49.959 0H51.5195L51.5566 26H49.6992L49.6631 3.75586L38.7793 22.5459H37.8506L26.9678 3.81738V26H24.5889L24.5527 3.75391L13.6689 22.5459H12.7402L1.85742 3.81934V26H0V0H1.59668L13.2402 20.0977ZM61.0859 26H59.1924V24.8799H61.0859V26ZM61.0859 23.2803H59.1924V22.0801H61.0859V23.2803ZM61.0859 20.4805H59.1924V19.2803H61.0859V20.4805ZM61.0859 17.6807H59.1924V16.4805H61.0859V17.6807ZM61.0859 14.8799H59.1924V0H61.0859V14.8799Z" fill="#F5F2EE" fill-opacity="0.3"/>
</svg>
