<svg width="125" height="79" viewBox="0 0 125 79" fill="none" xmlns="http://www.w3.org/2000/svg">
<g clip-path="url(#clip0_136_25)">
<path d="M50.9547 52.7597V-7.62939e-06H54.1957L78.6913 42.2832H76.9577L101.378 -7.62939e-06H104.544L104.619 52.7597H100.85L100.775 5.80357H101.83L78.6913 45.7502H76.807L53.5927 5.80357H54.7233V52.7597H50.9547Z" fill="#75622F"/>
<path d="M0 52.7597V-7.62939e-06H3.24095L27.7365 42.2832H26.003L50.4232 -7.62939e-06H53.5888L53.6642 52.7597H49.8956L49.8203 5.80357H50.8755L27.7365 45.7502H25.8523L2.63799 5.80357H3.76855V52.7597H0Z" fill="#75622F"/>
<path d="M125 73.21V74.0524H118.485V64.8387H124.803V65.6811H119.459V68.9585H124.223V69.7878H119.459V73.21H125Z" fill="#75622F"/>
<path d="M110.393 74.1314C109.48 74.1314 108.656 73.9296 107.918 73.5259C107.19 73.1223 106.615 72.5651 106.194 71.8543C105.782 71.1347 105.576 70.3318 105.576 69.4456C105.576 68.5593 105.782 67.7608 106.194 67.05C106.615 66.3304 107.194 65.7688 107.932 65.3652C108.669 64.9615 109.494 64.7597 110.406 64.7597C111.091 64.7597 111.722 64.8738 112.302 65.1019C112.881 65.3301 113.372 65.6635 113.776 66.1023L113.157 66.7209C112.438 65.9926 111.529 65.6284 110.432 65.6284C109.704 65.6284 109.042 65.7952 108.445 66.1286C107.848 66.4621 107.379 66.9184 107.037 67.4975C106.703 68.0767 106.536 68.726 106.536 69.4456C106.536 70.1651 106.703 70.8144 107.037 71.3936C107.379 71.9727 107.848 72.429 108.445 72.7625C109.042 73.0959 109.704 73.2627 110.432 73.2627C111.538 73.2627 112.446 72.8941 113.157 72.157L113.776 72.7757C113.372 73.2144 112.876 73.5522 112.288 73.7892C111.709 74.0173 111.077 74.1314 110.393 74.1314Z" fill="#75622F"/>
<path d="M100.752 64.8387V74.0524H99.9488L94.0257 66.5761V74.0524H93.0516V64.8387H93.8545L99.7908 72.315V64.8387H100.752Z" fill="#75622F"/>
<path d="M88.1295 73.21V74.0524H81.6141V64.8387H87.9321V65.6811H82.5881V68.9585H87.3529V69.7878H82.5881V73.21H88.1295Z" fill="#75622F"/>
<path d="M75.2903 69.4456H76.2248V72.9599C75.7948 73.3372 75.2859 73.6268 74.698 73.8286C74.11 74.0305 73.4914 74.1314 72.842 74.1314C71.9207 74.1314 71.0914 73.9296 70.3543 73.5259C69.6172 73.1223 69.0381 72.5651 68.6169 71.8543C68.1957 71.1347 67.9851 70.3318 67.9851 69.4456C67.9851 68.5593 68.1957 67.7608 68.6169 67.05C69.0381 66.3304 69.6172 65.7688 70.3543 65.3652C71.0914 64.9615 71.9251 64.7597 72.8552 64.7597C73.5572 64.7597 74.2022 64.8738 74.7901 65.1019C75.378 65.3213 75.8738 65.6504 76.2775 66.0891L75.672 66.7078C74.9437 65.9882 74.0179 65.6284 72.8947 65.6284C72.1488 65.6284 71.4732 65.7952 70.8677 66.1286C70.271 66.4533 69.8015 66.9096 69.4593 67.4975C69.1171 68.0767 68.946 68.726 68.946 69.4456C68.946 70.1651 69.1171 70.8144 69.4593 71.3936C69.8015 71.9727 70.271 72.429 70.8677 72.7625C71.4644 73.0959 72.1357 73.2627 72.8815 73.2627C73.8292 73.2627 74.6321 73.0257 75.2903 72.5519V69.4456Z" fill="#75622F"/>
<path d="M62.1967 64.8387H63.1707V74.0524H62.1967V64.8387Z" fill="#75622F"/>
<path d="M51.8132 64.8387H52.7873V73.21H57.9469V74.0524H51.8132V64.8387Z" fill="#75622F"/>
<path d="M41.4297 64.8387H42.4038V73.21H47.5635V74.0524H41.4297V64.8387Z" fill="#75622F"/>
<path d="M36.5076 73.21V74.0524H29.9922V64.8387H36.3102V65.6811H30.9662V68.9585H35.731V69.7878H30.9662V73.21H36.5076Z" fill="#75622F"/>
<path d="M21.5915 65.6811H18.3536V64.8387H25.8035V65.6811H22.5656V74.0524H21.5915V65.6811Z" fill="#75622F"/>
<path d="M14.1615 64.8387V74.0524H13.3586L7.43551 66.5761V74.0524H6.46149V64.8387H7.2644L13.2007 72.315V64.8387H14.1615Z" fill="#75622F"/>
<path d="M-0.142883 64.8387H0.831138V74.0524H-0.142883V64.8387Z" fill="#75622F"/>
<path d="M125.463 52.7597H121.619V50.4872H125.463V52.7597ZM125.463 47.2404H121.619V44.8053H125.463V47.2404ZM125.463 41.5586H121.619V39.1235H125.463V41.5586ZM125.463 35.8768H121.619V33.4417H125.463V35.8768ZM125.463 30.195H121.619V-7.62939e-06H125.463V30.195Z" fill="#75622F"/>
</g>
<defs>
<clipPath id="clip0_136_25">
<rect width="125" height="78.7338" fill="white"/>
</clipPath>
</defs>
</svg>
