<svg width="104" height="20" viewBox="0 0 104 20" fill="none" xmlns="http://www.w3.org/2000/svg">
<path d="M46.4536 18.3028H57.731V19.5899H45.0259V9.91821e-05H46.4536V18.3028ZM77.52 19.5899H75.981L73.4722 14.0763H62.1108L59.6099 19.5899H58.0708L67.0815 9.91821e-05H68.5093L77.52 19.5899ZM82.9722 17.6202L89.1099 9.91821e-05H90.481L96.5796 17.6622L102.599 9.91821e-05H103.999L97.3657 19.5899H95.854L89.7671 2.00889L83.6812 19.5899H82.1694L75.5093 9.91821e-05H77.02L82.9722 17.6202ZM62.6567 12.8731H72.9243L67.7817 1.57236L62.6567 12.8731Z" fill="#75622F" fill-opacity="0.5"/>
<path d="M9.97559 15.1436L18.7227 0H20.123L28.8955 15.1436L37.6416 0H38.8164L38.8447 19.5898H37.4453L37.4189 2.8291L29.2178 16.9873H28.5186L20.3184 2.87695V19.5898H18.5264L18.499 2.83105L10.2988 16.9873H9.59863L1.39941 2.87695V19.5898H0V0H1.20312L9.97559 15.1436Z" fill="#75622F" fill-opacity="0.5"/>
</svg>
