<svg width="141" height="27" viewBox="0 0 141 27" fill="none" xmlns="http://www.w3.org/2000/svg">
<path d="M13.5254 20.5303L25.3828 0H27.2822L39.1758 20.5303L51.0332 0H52.627L52.665 26.5596H50.7676L50.7314 3.83398L39.6133 23.0303H38.6641L27.5479 3.90137V26.5596H25.1172L25.0801 3.83594L13.9629 23.0303H13.0137L1.89746 3.90137V26.5596H0V0H1.63184L13.5254 20.5303ZM62.9814 24.8135H78.2715V26.5596H61.0459V0H62.9814V24.8135ZM105.102 26.5596H103.015L99.6133 19.085H84.209L80.8184 26.5596H78.7314L90.9492 0H92.8838L105.102 26.5596ZM112.494 23.8896L120.815 0H122.674L130.941 23.9443L139.103 0H141L132.008 26.5596H129.959L121.706 2.72266L113.454 26.5596H111.405L102.375 0H104.424L112.494 23.8896ZM84.9492 17.4531H98.8701L91.8975 2.13086L84.9492 17.4531Z" fill="#F5F2EE" fill-opacity="0.3"/>
</svg>
